<?xml version="1.0" encoding="UTF-8" standalone="no"?><svg xmlns="http://www.w3.org/2000/svg" xmlns:xlink="http://www.w3.org/1999/xlink" clip-rule="evenodd" stroke-miterlimit="4.00" viewBox="0 0 1024 768"><desc>SVG generated by Keynote</desc><defs></defs><g transform="matrix(1.00, 0.00, -0.00, -1.00, 0.0, 768.0)"><path d="M 0.0 768.0 L 1024.0 768.0 L 1024.0 0.0 L 0.0 0.0 Z M 0.0 768.0 " fill="#FEFFFF"></path><path d="M 0.0 0.0 L 611.1 0.0 " fill="none" stroke="#000000" stroke-width="1.00" transform="matrix(0.00, 1.00, 1.00, 0.00, 531.9, -4.3)"></path><path d="M 0.0 0.0 L 127.1 0.0 " fill="none" stroke="#000000" stroke-width="1.00" transform="matrix(1.00, 0.00, 0.00, -1.00, 468.3, 264.4)"></path><path d="M 0.0 0.0 L 110.6 0.0 " fill="none" stroke="#000000" stroke-width="1.00" transform="matrix(1.00, 0.00, 0.00, -1.00, 474.0, 677.4)"></path><path d="M 0.0 0.0 L 611.1 0.0 " fill="none" stroke="#000000" stroke-width="1.00" transform="matrix(0.00, 1.00, 1.00, 0.00, 531.9, -4.3)"></path><path d="M 0.0 0.0 L 127.1 0.0 " fill="none" stroke="#000000" stroke-width="1.00" transform="matrix(1.00, 0.00, 0.00, -1.00, 468.3, 264.4)"></path><path d="M 0.0 0.0 L 110.6 0.0 " fill="none" stroke="#000000" stroke-width="1.00" transform="matrix(1.00, 0.00, 0.00, -1.00, 474.0, 677.4)"></path><path d="M 536.9 270.3 C 540.0 267.3 540.0 262.2 536.9 259.1 C 533.8 256.0 528.8 256.0 525.7 259.1 C 522.6 262.2 522.6 267.3 525.7 270.3 C 528.8 273.4 533.8 273.4 536.9 270.3 Z M 536.9 270.3 " fill="#000000"></path><path d="M 13.5 2.3 C 16.6 5.4 16.6 10.4 13.5 13.5 C 10.4 16.6 5.4 16.6 2.3 13.5 C -0.8 10.4 -0.8 5.4 2.3 2.3 C 5.4 -0.8 10.4 -0.8 13.5 2.3 Z M 13.5 2.3 " fill="none" stroke="#000000" stroke-width="1.00" transform="matrix(1.00, 0.00, 0.00, -1.00, 523.4, 272.7)"></path><path d="M 0.0 0.0 L 33.4 0.0 " fill="none" stroke="#000000" stroke-width="1.00" transform="matrix(1.00, 0.00, 0.00, -1.00, 514.6, 607.1)"></path><g><clipPath id="clip-30"><path d="M 411.0 615.0 L 653.0 615.0 L 653.0 344.0 L 411.0 344.0 Z M 411.0 614.5 "></path></clipPath><g clip-path="url(#clip-30)"><image xlink:href="../../031FBA28-68F8-4D6B-80AF-6E2813C2856D/assets/AD111D87F11B44B37400269E2DCB1502.jpeg" width="800.00" height="252.00" transform="matrix(1.07, 0.00, -0.00, -1.07, 103.0, 614.0)"></image></g></g><path d="M 0.0 0.0 L 0.0 270.3 L 241.8 270.3 L 241.8 0.0 L 0.0 0.0 Z M 0.0 0.0 " fill="none" stroke="#000000" stroke-width="1.00" transform="matrix(1.00, 0.00, 0.00, -1.00, 411.0, 614.5)"></path><image xlink:href="../../031FBA28-68F8-4D6B-80AF-6E2813C2856D/assets/A6526E12D2F58A9779E4E42E2215F02D.jpeg" width="800.00" height="141.00" transform="matrix(1.00, 0.00, -0.00, -1.00, 145.0, 252.0)"></image><text xml:space="preserve" font-family="Gotham-Medium" font-size="24.0" fill="#000000" transform="matrix(1.00, 0.00, -0.00, -1.00, 298.0, 696.0)">T</text><text xml:space="preserve" font-family="Gotham-Medium" font-size="24.0" fill="#000000" transform="matrix(1.00, 0.00, -0.00, -1.00, 313.6, 696.0)">H</text><text xml:space="preserve" font-family="Gotham-Medium" font-size="24.0" fill="#000000" transform="matrix(1.00, 0.00, -0.00, -1.00, 331.8, 696.0)">E</text><text xml:space="preserve" font-family="Gotham-Medium" font-size="24.0" fill="#000000" transform="matrix(1.00, 0.00, -0.00, -1.00, 347.9, 696.0)"> </text><text xml:space="preserve" font-family="Gotham-Medium" font-size="24.0" fill="#000000" transform="matrix(1.00, 0.00, -0.00, -1.00, 355.1, 696.0)">R</text><text xml:space="preserve" font-family="Gotham-Medium" font-size="24.0" fill="#000000" transform="matrix(1.00, 0.00, -0.00, -1.00, 372.4, 696.0)">I</text><text xml:space="preserve" font-family="Gotham-Medium" font-size="24.0" fill="#000000" transform="matrix(1.00, 0.00, -0.00, -1.00, 380.0, 696.0)">V</text><text xml:space="preserve" font-family="Gotham-Medium" font-size="24.0" fill="#000000" transform="matrix(1.00, 0.00, -0.00, -1.00, 398.0, 696.0)">E</text><text xml:space="preserve" font-family="Gotham-Medium" font-size="24.0" fill="#000000" transform="matrix(1.00, 0.00, -0.00, -1.00, 414.1, 696.0)">R</text><text xml:space="preserve" font-family="Gotham-Medium" font-size="24.0" fill="#000000" transform="matrix(1.00, 0.00, -0.00, -1.00, 431.5, 696.0)"> </text><text xml:space="preserve" font-family="Gotham-Medium" font-size="24.0" fill="#000000" transform="matrix(1.00, 0.00, -0.00, -1.00, 438.7, 696.0)">T</text><text xml:space="preserve" font-family="Gotham-Medium" font-size="24.0" fill="#000000" transform="matrix(1.00, 0.00, -0.00, -1.00, 454.2, 696.0)">H</text><text xml:space="preserve" font-family="Gotham-Medium" font-size="24.0" fill="#000000" transform="matrix(1.00, 0.00, -0.00, -1.00, 472.5, 696.0)">A</text><text xml:space="preserve" font-family="Gotham-Medium" font-size="24.0" fill="#000000" transform="matrix(1.00, 0.00, -0.00, -1.00, 489.5, 696.0)">T</text><text xml:space="preserve" font-family="Gotham-Medium" font-size="24.0" fill="#000000" transform="matrix(1.00, 0.00, -0.00, -1.00, 505.0, 696.0)"> </text><text xml:space="preserve" font-family="Gotham-Medium" font-size="24.0" fill="#000000" transform="matrix(1.00, 0.00, -0.00, -1.00, 512.2, 696.0)">F</text><text xml:space="preserve" font-family="Gotham-Medium" font-size="24.0" fill="#000000" transform="matrix(1.00, 0.00, -0.00, -1.00, 528.0, 696.0)">L</text><text xml:space="preserve" font-family="Gotham-Medium" font-size="24.0" fill="#000000" transform="matrix(1.00, 0.00, -0.00, -1.00, 540.9, 696.0)">O</text><text xml:space="preserve" font-family="Gotham-Medium" font-size="24.0" fill="#000000" transform="matrix(1.00, 0.00, -0.00, -1.00, 560.2, 696.0)">W</text><text xml:space="preserve" font-family="Gotham-Medium" font-size="24.0" fill="#000000" transform="matrix(1.00, 0.00, -0.00, -1.00, 586.8, 696.0)">S</text><text xml:space="preserve" font-family="Gotham-Medium" font-size="24.0" fill="#000000" transform="matrix(1.00, 0.00, -0.00, -1.00, 602.2, 696.0)"> </text><text xml:space="preserve" font-family="Gotham-Medium" font-size="24.0" fill="#000000" transform="matrix(1.00, 0.00, -0.00, -1.00, 609.4, 696.0)">B</text><text xml:space="preserve" font-family="Gotham-Medium" font-size="24.0" fill="#000000" transform="matrix(1.00, 0.00, -0.00, -1.00, 626.7, 696.0)">O</text><text xml:space="preserve" font-family="Gotham-Medium" font-size="24.0" fill="#000000" transform="matrix(1.00, 0.00, -0.00, -1.00, 645.3, 696.0)">T</text><text xml:space="preserve" font-family="Gotham-Medium" font-size="24.0" fill="#000000" transform="matrix(1.00, 0.00, -0.00, -1.00, 660.9, 696.0)">H</text><text xml:space="preserve" font-family="Gotham-Medium" font-size="24.0" fill="#000000" transform="matrix(1.00, 0.00, -0.00, -1.00, 679.1, 696.0)"> </text><text xml:space="preserve" font-family="Gotham-Medium" font-size="24.0" fill="#000000" transform="matrix(1.00, 0.00, -0.00, -1.00, 686.3, 696.0)">W</text><text xml:space="preserve" font-family="Gotham-Medium" font-size="24.0" fill="#000000" transform="matrix(1.00, 0.00, -0.00, -1.00, 711.5, 696.0)">A</text><text xml:space="preserve" font-family="Gotham-Medium" font-size="24.0" fill="#000000" transform="matrix(1.00, 0.00, -0.00, -1.00, 728.4, 696.0)">Y</text><text xml:space="preserve" font-family="Gotham-Medium" font-size="24.0" fill="#000000" transform="matrix(1.00, 0.00, -0.00, -1.00, 745.5, 696.0)">S</text></g></svg>