<?xml version="1.0" encoding="UTF-8" standalone="no"?><svg xmlns="http://www.w3.org/2000/svg" xmlns:xlink="http://www.w3.org/1999/xlink" clip-rule="evenodd" stroke-miterlimit="4.00" viewBox="0 0 1024 768"><desc>SVG generated by Keynote</desc><defs></defs><g transform="matrix(1.00, 0.00, -0.00, -1.00, 0.0, 768.0)"><path d="M 0.0 768.0 L 1024.0 768.0 L 1024.0 0.0 L 0.0 0.0 Z M 0.0 768.0 " fill="#FEFFFF"></path><path d="M 0.0 0.0 L 405.8 0.0 L 405.8 112.2 L 0.0 112.2 Z M 0.0 0.0 " fill="none" stroke="#000000" stroke-width="1.00" transform="matrix(1.00, 0.00, 0.00, -1.00, 61.8, 320.5)"></path><path d="M 0.0 0.0 L 611.1 0.0 " fill="none" stroke="#000000" stroke-width="1.00" transform="matrix(0.00, 1.00, 1.00, 0.00, 531.9, -4.3)"></path><path d="M 0.0 0.0 L 127.1 0.0 " fill="none" stroke="#000000" stroke-width="1.00" transform="matrix(1.00, 0.00, 0.00, -1.00, 468.3, 264.4)"></path><path d="M 0.0 0.0 L 110.6 0.0 " fill="none" stroke="#000000" stroke-width="1.00" transform="matrix(1.00, 0.00, 0.00, -1.00, 474.0, 677.4)"></path><path d="M 536.9 270.3 C 540.0 267.3 540.0 262.2 536.9 259.1 C 533.8 256.0 528.8 256.0 525.7 259.1 C 522.6 262.2 522.6 267.3 525.7 270.3 C 528.8 273.4 533.8 273.4 536.9 270.3 Z M 536.9 270.3 " fill="#000000"></path><path d="M 0.0 0.0 L 33.4 0.0 " fill="none" stroke="#000000" stroke-width="1.00" transform="matrix(1.00, 0.00, 0.00, -1.00, 514.6, 607.1)"></path><path d="M 0.0 0.0 L 67.1 0.0 " fill="none" stroke="#000000" stroke-width="1.00" transform="matrix(0.00, 1.00, 1.00, 0.00, 804.4, -9.0)"></path><text xml:space="preserve" font-family="Gotham-Medium" font-size="24.0" fill="#000000" transform="matrix(1.00, 0.00, -0.00, -1.00, 411.0, 696.0)">G</text><text xml:space="preserve" font-family="Gotham-Medium" font-size="24.0" fill="#000000" transform="matrix(1.00, 0.00, -0.00, -1.00, 429.8, 696.0)">A</text><text xml:space="preserve" font-family="Gotham-Medium" font-size="24.0" fill="#000000" transform="matrix(1.00, 0.00, -0.00, -1.00, 446.9, 696.0)">T</text><text xml:space="preserve" font-family="Gotham-Medium" font-size="24.0" fill="#000000" transform="matrix(1.00, 0.00, -0.00, -1.00, 462.4, 696.0)">H</text><text xml:space="preserve" font-family="Gotham-Medium" font-size="24.0" fill="#000000" transform="matrix(1.00, 0.00, -0.00, -1.00, 480.6, 696.0)">E</text><text xml:space="preserve" font-family="Gotham-Medium" font-size="24.0" fill="#000000" transform="matrix(1.00, 0.00, -0.00, -1.00, 496.7, 696.0)">R</text><text xml:space="preserve" font-family="Gotham-Medium" font-size="24.0" fill="#000000" transform="matrix(1.00, 0.00, -0.00, -1.00, 514.1, 696.0)">I</text><text xml:space="preserve" font-family="Gotham-Medium" font-size="24.0" fill="#000000" transform="matrix(1.00, 0.00, -0.00, -1.00, 521.7, 696.0)">N</text><text xml:space="preserve" font-family="Gotham-Medium" font-size="24.0" fill="#000000" transform="matrix(1.00, 0.00, -0.00, -1.00, 540.6, 696.0)">G</text><text xml:space="preserve" font-family="Gotham-Medium" font-size="24.0" fill="#000000" transform="matrix(1.00, 0.00, -0.00, -1.00, 559.5, 696.0)"> </text><text xml:space="preserve" font-family="Gotham-Medium" font-size="24.0" fill="#000000" transform="matrix(1.00, 0.00, -0.00, -1.00, 566.7, 696.0)">S</text><text xml:space="preserve" font-family="Gotham-Medium" font-size="24.0" fill="#000000" transform="matrix(1.00, 0.00, -0.00, -1.00, 582.0, 696.0)">E</text><text xml:space="preserve" font-family="Gotham-Medium" font-size="24.0" fill="#000000" transform="matrix(1.00, 0.00, -0.00, -1.00, 598.1, 696.0)">N</text><text xml:space="preserve" font-family="Gotham-Medium" font-size="24.0" fill="#000000" transform="matrix(1.00, 0.00, -0.00, -1.00, 617.1, 696.0)">S</text><text xml:space="preserve" font-family="Gotham-Medium" font-size="24.0" fill="#000000" transform="matrix(1.00, 0.00, -0.00, -1.00, 632.4, 696.0)">E</text><g><clipPath id="clip-31"><path d="M 596.0 468.0 L 962.0 468.0 L 962.0 59.0 L 596.0 59.0 Z M 596.1 468.3 "></path></clipPath><g clip-path="url(#clip-31)"><image xlink:href="D9846868B0633DCA262AADE87FFCA548.jpeg" width="537.00" height="321.00" transform="matrix(1.00, 0.00, -0.00, -1.00, 596.0, 381.0)"></image></g></g><path d="M 0.0 87.5 L 0.0 408.9 L 366.4 408.9 L 366.4 87.5 L 0.0 87.5 Z M 0.0 87.5 " fill="none" stroke="#000000" stroke-width="1.00" transform="matrix(1.00, 0.00, 0.00, -1.00, 596.1, 468.3)"></path><text xml:space="preserve" font-family="Gotham-Medium" font-size="24.0" fill="#000000" transform="matrix(1.00, 0.00, -0.00, -1.00, 175.0, 255.0)">T</text><text xml:space="preserve" font-family="Gotham-Medium" font-size="24.0" fill="#000000" transform="matrix(1.00, 0.00, -0.00, -1.00, 190.6, 255.0)">I</text><text xml:space="preserve" font-family="Gotham-Medium" font-size="24.0" fill="#000000" transform="matrix(1.00, 0.00, -0.00, -1.00, 198.2, 255.0)">M</text><text xml:space="preserve" font-family="Gotham-Medium" font-size="24.0" fill="#000000" transform="matrix(1.00, 0.00, -0.00, -1.00, 219.0, 255.0)"> </text><text xml:space="preserve" font-family="Gotham-Medium" font-size="24.0" fill="#000000" transform="matrix(1.00, 0.00, -0.00, -1.00, 226.2, 255.0)">K</text><text xml:space="preserve" font-family="Gotham-Medium" font-size="24.0" fill="#000000" transform="matrix(1.00, 0.00, -0.00, -1.00, 243.6, 255.0)">N</text><text xml:space="preserve" font-family="Gotham-Medium" font-size="24.0" fill="#000000" transform="matrix(1.00, 0.00, -0.00, -1.00, 262.6, 255.0)">O</text><text xml:space="preserve" font-family="Gotham-Medium" font-size="24.0" fill="#000000" transform="matrix(1.00, 0.00, -0.00, -1.00, 281.8, 255.0)">W</text><text xml:space="preserve" font-family="Gotham-Medium" font-size="24.0" fill="#000000" transform="matrix(1.00, 0.00, -0.00, -1.00, 308.6, 255.0)">L</text><text xml:space="preserve" font-family="Gotham-Medium" font-size="24.0" fill="#000000" transform="matrix(1.00, 0.00, -0.00, -1.00, 323.4, 255.0)">E</text><text xml:space="preserve" font-family="Gotham-Medium" font-size="24.0" fill="#000000" transform="matrix(1.00, 0.00, -0.00, -1.00, 339.4, 255.0)">S</text><text xml:space="preserve" font-family="Gotham-Book" font-size="11.2" fill="#000000" transform="matrix(1.00, 0.00, -0.00, -1.00, 858.4, 404.7)">T</text><text xml:space="preserve" font-family="Gotham-Book" font-size="11.2" fill="#000000" transform="matrix(1.00, 0.00, -0.00, -1.00, 865.7, 404.7)">R</text><text xml:space="preserve" font-family="Gotham-Book" font-size="11.2" fill="#000000" transform="matrix(1.00, 0.00, -0.00, -1.00, 873.8, 404.7)">E</text><text xml:space="preserve" font-family="Gotham-Book" font-size="11.2" fill="#000000" transform="matrix(1.00, 0.00, -0.00, -1.00, 881.3, 404.7)">E</text><text xml:space="preserve" font-family="Gotham-Book" font-size="14.0" fill="#000000" transform="matrix(1.00, 0.00, -0.00, -1.00, 888.8, 404.7)"> </text><text xml:space="preserve" font-family="Gotham-Book" font-size="11.2" fill="#000000" transform="matrix(1.00, 0.00, -0.00, -1.00, 893.0, 404.7)">D</text><text xml:space="preserve" font-family="Gotham-Book" font-size="11.2" fill="#000000" transform="matrix(1.00, 0.00, -0.00, -1.00, 901.8, 404.7)">R</text><text xml:space="preserve" font-family="Gotham-Book" font-size="11.2" fill="#000000" transform="matrix(1.00, 0.00, -0.00, -1.00, 909.7, 404.7)">A</text><text xml:space="preserve" font-family="Gotham-Book" font-size="11.2" fill="#000000" transform="matrix(1.00, 0.00, -0.00, -1.00, 917.7, 404.7)">W</text><text xml:space="preserve" font-family="Gotham-Book" font-size="11.2" fill="#000000" transform="matrix(1.00, 0.00, -0.00, -1.00, 930.1, 404.7)">I</text><text xml:space="preserve" font-family="Gotham-Book" font-size="11.2" fill="#000000" transform="matrix(1.00, 0.00, -0.00, -1.00, 933.3, 404.7)">N</text><text xml:space="preserve" font-family="Gotham-Book" font-size="11.2" fill="#000000" transform="matrix(1.00, 0.00, -0.00, -1.00, 942.2, 404.7)">G</text><text xml:space="preserve" font-family="Gotham-Book" font-size="11.2" fill="#000000" transform="matrix(1.00, 0.00, -0.00, -1.00, 951.0, 404.7)">S</text><text xml:space="preserve" font-family="Gotham-Book" font-size="14.0" fill="#000000" transform="matrix(1.00, 0.00, -0.00, -1.00, 958.1, 404.7)"> </text></g></svg>