<?xml version="1.0" encoding="UTF-8" standalone="no"?><svg xmlns="http://www.w3.org/2000/svg" xmlns:xlink="http://www.w3.org/1999/xlink" clip-rule="evenodd" stroke-miterlimit="4.00" viewBox="0 0 1024 768"><desc>SVG generated by Keynote</desc><defs></defs><g transform="matrix(1.00, 0.00, -0.00, -1.00, 0.0, 768.0)"><path d="M 0.0 768.0 L 1024.0 768.0 L 1024.0 0.0 L 0.0 0.0 Z M 0.0 768.0 " fill="#FEFFFF"></path><path d="M 0.0 0.0 L 405.8 0.0 L 405.8 112.2 L 0.0 112.2 Z M 0.0 0.0 " fill="none" stroke="#000000" stroke-width="1.00" transform="matrix(1.00, 0.00, 0.00, -1.00, 61.8, 320.5)"></path><path d="M 0.0 0.0 L 611.1 0.0 " fill="none" stroke="#000000" stroke-width="1.00" transform="matrix(0.00, 1.00, 1.00, 0.00, 531.9, -4.3)"></path><path d="M 0.0 0.0 L 127.1 0.0 " fill="none" stroke="#000000" stroke-width="1.00" transform="matrix(1.00, 0.00, 0.00, -1.00, 468.3, 264.4)"></path><path d="M 0.0 0.0 L 110.6 0.0 " fill="none" stroke="#000000" stroke-width="1.00" transform="matrix(1.00, 0.00, 0.00, -1.00, 474.0, 677.4)"></path><path d="M 536.9 270.3 C 540.0 267.3 540.0 262.2 536.9 259.1 C 533.8 256.0 528.8 256.0 525.7 259.1 C 522.6 262.2 522.6 267.3 525.7 270.3 C 528.8 273.4 533.8 273.4 536.9 270.3 Z M 536.9 270.3 " fill="#000000"></path><path d="M 0.0 0.0 L 33.4 0.0 " fill="none" stroke="#000000" stroke-width="1.00" transform="matrix(1.00, 0.00, 0.00, -1.00, 514.6, 607.1)"></path><path d="M 0.0 0.0 L 67.1 0.0 " fill="none" stroke="#000000" stroke-width="1.00" transform="matrix(0.00, 1.00, 1.00, 0.00, 804.4, -9.0)"></path><text xml:space="preserve" font-family="Gotham-Medium" font-size="24.0" fill="#000000" transform="matrix(1.00, 0.00, -0.00, -1.00, 411.0, 696.0)">G</text><text xml:space="preserve" font-family="Gotham-Medium" font-size="24.0" fill="#000000" transform="matrix(1.00, 0.00, -0.00, -1.00, 429.8, 696.0)">A</text><text xml:space="preserve" font-family="Gotham-Medium" font-size="24.0" fill="#000000" transform="matrix(1.00, 0.00, -0.00, -1.00, 446.9, 696.0)">T</text><text xml:space="preserve" font-family="Gotham-Medium" font-size="24.0" fill="#000000" transform="matrix(1.00, 0.00, -0.00, -1.00, 462.4, 696.0)">H</text><text xml:space="preserve" font-family="Gotham-Medium" font-size="24.0" fill="#000000" transform="matrix(1.00, 0.00, -0.00, -1.00, 480.6, 696.0)">E</text><text xml:space="preserve" font-family="Gotham-Medium" font-size="24.0" fill="#000000" transform="matrix(1.00, 0.00, -0.00, -1.00, 496.7, 696.0)">R</text><text xml:space="preserve" font-family="Gotham-Medium" font-size="24.0" fill="#000000" transform="matrix(1.00, 0.00, -0.00, -1.00, 514.1, 696.0)">I</text><text xml:space="preserve" font-family="Gotham-Medium" font-size="24.0" fill="#000000" transform="matrix(1.00, 0.00, -0.00, -1.00, 521.7, 696.0)">N</text><text xml:space="preserve" font-family="Gotham-Medium" font-size="24.0" fill="#000000" transform="matrix(1.00, 0.00, -0.00, -1.00, 540.6, 696.0)">G</text><text xml:space="preserve" font-family="Gotham-Medium" font-size="24.0" fill="#000000" transform="matrix(1.00, 0.00, -0.00, -1.00, 559.5, 696.0)"> </text><text xml:space="preserve" font-family="Gotham-Medium" font-size="24.0" fill="#000000" transform="matrix(1.00, 0.00, -0.00, -1.00, 566.7, 696.0)">S</text><text xml:space="preserve" font-family="Gotham-Medium" font-size="24.0" fill="#000000" transform="matrix(1.00, 0.00, -0.00, -1.00, 582.0, 696.0)">E</text><text xml:space="preserve" font-family="Gotham-Medium" font-size="24.0" fill="#000000" transform="matrix(1.00, 0.00, -0.00, -1.00, 598.1, 696.0)">N</text><text xml:space="preserve" font-family="Gotham-Medium" font-size="24.0" fill="#000000" transform="matrix(1.00, 0.00, -0.00, -1.00, 617.1, 696.0)">S</text><text xml:space="preserve" font-family="Gotham-Medium" font-size="24.0" fill="#000000" transform="matrix(1.00, 0.00, -0.00, -1.00, 632.4, 696.0)">E</text><g><clipPath id="clip-21"><path d="M 596.0 468.0 L 962.0 468.0 L 962.0 59.0 L 596.0 59.0 Z M 596.1 468.3 "></path></clipPath><g clip-path="url(#clip-21)"><image xlink:href="C36C5186FB15BAC2C4777241C4336CA2.jpeg" width="616.00" height="409.00" transform="matrix(1.00, 0.00, -0.00, -1.00, 472.0, 468.0)"></image></g></g><path d="M 0.0 0.0 L 0.0 409.7 L 366.4 409.7 L 366.4 0.0 L 0.0 0.0 Z M 0.0 0.0 " fill="none" stroke="#000000" stroke-width="1.00" transform="matrix(1.00, 0.00, 0.00, -1.00, 596.1, 468.3)"></path><text xml:space="preserve" font-family="Gotham-Book" font-size="18.0" fill="#000000" transform="matrix(1.00, 0.00, -0.00, -1.00, 10.0, 737.0)">5</text><text xml:space="preserve" font-family="Gotham-Book" font-size="18.0" fill="#000000" transform="matrix(1.00, 0.00, -0.00, -1.00, 21.0, 737.0)">.</text><text xml:space="preserve" font-family="Gotham-Book" font-size="18.0" fill="#000000" transform="matrix(1.00, 0.00, -0.00, -1.00, 25.4, 737.0)"> </text><text xml:space="preserve" font-family="Gotham-Book" font-size="18.0" fill="#000000" transform="matrix(1.00, 0.00, -0.00, -1.00, 30.8, 737.0)">a</text><text xml:space="preserve" font-family="Gotham-Book" font-size="18.0" fill="#000000" transform="matrix(1.00, 0.00, -0.00, -1.00, 41.2, 737.0)">r</text><text xml:space="preserve" font-family="Gotham-Book" font-size="18.0" fill="#000000" transform="matrix(1.00, 0.00, -0.00, -1.00, 48.5, 737.0)">t</text><text xml:space="preserve" font-family="Gotham-Book" font-size="18.0" fill="#000000" transform="matrix(1.00, 0.00, -0.00, -1.00, 55.8, 737.0)">i</text><text xml:space="preserve" font-family="Gotham-Book" font-size="18.0" fill="#000000" transform="matrix(1.00, 0.00, -0.00, -1.00, 60.5, 737.0)">s</text><text xml:space="preserve" font-family="Gotham-Book" font-size="18.0" fill="#000000" transform="matrix(1.00, 0.00, -0.00, -1.00, 69.3, 737.0)">t</text><text xml:space="preserve" font-family="Gotham-Book" font-size="18.0" fill="#000000" transform="matrix(1.00, 0.00, -0.00, -1.00, 76.6, 737.0)">s</text><text xml:space="preserve" font-family="Gotham-Book" font-size="18.0" fill="#000000" transform="matrix(1.00, 0.00, -0.00, -1.00, 85.6, 737.0)">:</text><text xml:space="preserve" font-family="Gotham-Book" font-size="18.0" fill="#000000" transform="matrix(1.00, 0.00, -0.00, -1.00, 90.2, 737.0)"> </text><text xml:space="preserve" font-family="Gotham-Book" font-size="18.0" fill="#000000" transform="matrix(1.00, 0.00, -0.00, -1.00, 95.6, 737.0)">j</text><text xml:space="preserve" font-family="Gotham-Book" font-size="18.0" fill="#000000" transform="matrix(1.00, 0.00, -0.00, -1.00, 100.3, 737.0)">e</text><text xml:space="preserve" font-family="Gotham-Book" font-size="18.0" fill="#000000" transform="matrix(1.00, 0.00, -0.00, -1.00, 110.9, 737.0)">r</text><text xml:space="preserve" font-family="Gotham-Book" font-size="18.0" fill="#000000" transform="matrix(1.00, 0.00, -0.00, -1.00, 118.1, 737.0)">e</text><text xml:space="preserve" font-family="Gotham-Book" font-size="18.0" fill="#000000" transform="matrix(1.00, 0.00, -0.00, -1.00, 128.8, 737.0)">m</text><text xml:space="preserve" font-family="Gotham-Book" font-size="18.0" fill="#000000" transform="matrix(1.00, 0.00, -0.00, -1.00, 145.9, 737.0)">i</text><text xml:space="preserve" font-family="Gotham-Book" font-size="18.0" fill="#000000" transform="matrix(1.00, 0.00, -0.00, -1.00, 150.7, 737.0)">j</text><text xml:space="preserve" font-family="Gotham-Book" font-size="18.0" fill="#000000" transform="matrix(1.00, 0.00, -0.00, -1.00, 155.4, 737.0)">e</text><text xml:space="preserve" font-family="Gotham-Book" font-size="18.0" fill="#000000" transform="matrix(1.00, 0.00, -0.00, -1.00, 166.0, 737.0)">n</text><text xml:space="preserve" font-family="Gotham-Book" font-size="18.0" fill="#000000" transform="matrix(1.00, 0.00, -0.00, -1.00, 177.1, 737.0)">k</text><text xml:space="preserve" font-family="Gotham-Book" font-size="18.0" fill="#000000" transform="matrix(1.00, 0.00, -0.00, -1.00, 186.8, 737.0)">o</text><text xml:space="preserve" font-family="Gotham-Medium" font-size="24.0" fill="#000000" transform="matrix(1.00, 0.00, -0.00, -1.00, 119.0, 255.0)">N</text><text xml:space="preserve" font-family="Gotham-Medium" font-size="24.0" fill="#000000" transform="matrix(1.00, 0.00, -0.00, -1.00, 138.0, 255.0)">A</text><text xml:space="preserve" font-family="Gotham-Medium" font-size="24.0" fill="#000000" transform="matrix(1.00, 0.00, -0.00, -1.00, 155.0, 255.0)">T</text><text xml:space="preserve" font-family="Gotham-Medium" font-size="24.0" fill="#000000" transform="matrix(1.00, 0.00, -0.00, -1.00, 168.6, 255.0)">A</text><text xml:space="preserve" font-family="Gotham-Medium" font-size="24.0" fill="#000000" transform="matrix(1.00, 0.00, -0.00, -1.00, 187.6, 255.0)">L</text><text xml:space="preserve" font-family="Gotham-Medium" font-size="24.0" fill="#000000" transform="matrix(1.00, 0.00, -0.00, -1.00, 202.4, 255.0)">I</text><text xml:space="preserve" font-family="Gotham-Medium" font-size="24.0" fill="#000000" transform="matrix(1.00, 0.00, -0.00, -1.00, 210.1, 255.0)">E</text><text xml:space="preserve" font-family="Gotham-Medium" font-size="24.0" fill="#000000" transform="matrix(1.00, 0.00, -0.00, -1.00, 226.1, 255.0)"> </text><text xml:space="preserve" font-family="Gotham-Medium" font-size="24.0" fill="#000000" transform="matrix(1.00, 0.00, -0.00, -1.00, 233.3, 255.0)">J</text><text xml:space="preserve" font-family="Gotham-Medium" font-size="24.0" fill="#000000" transform="matrix(1.00, 0.00, -0.00, -1.00, 246.8, 255.0)">E</text><text xml:space="preserve" font-family="Gotham-Medium" font-size="24.0" fill="#000000" transform="matrix(1.00, 0.00, -0.00, -1.00, 262.8, 255.0)">R</text><text xml:space="preserve" font-family="Gotham-Medium" font-size="24.0" fill="#000000" transform="matrix(1.00, 0.00, -0.00, -1.00, 280.2, 255.0)">E</text><text xml:space="preserve" font-family="Gotham-Medium" font-size="24.0" fill="#000000" transform="matrix(1.00, 0.00, -0.00, -1.00, 296.3, 255.0)">M</text><text xml:space="preserve" font-family="Gotham-Medium" font-size="24.0" fill="#000000" transform="matrix(1.00, 0.00, -0.00, -1.00, 317.1, 255.0)">I</text><text xml:space="preserve" font-family="Gotham-Medium" font-size="24.0" fill="#000000" transform="matrix(1.00, 0.00, -0.00, -1.00, 324.7, 255.0)">J</text><text xml:space="preserve" font-family="Gotham-Medium" font-size="24.0" fill="#000000" transform="matrix(1.00, 0.00, -0.00, -1.00, 338.1, 255.0)">E</text><text xml:space="preserve" font-family="Gotham-Medium" font-size="24.0" fill="#000000" transform="matrix(1.00, 0.00, -0.00, -1.00, 354.2, 255.0)">N</text><text xml:space="preserve" font-family="Gotham-Medium" font-size="24.0" fill="#000000" transform="matrix(1.00, 0.00, -0.00, -1.00, 373.2, 255.0)">K</text><text xml:space="preserve" font-family="Gotham-Medium" font-size="24.0" fill="#000000" transform="matrix(1.00, 0.00, -0.00, -1.00, 389.3, 255.0)">O</text></g></svg>