<?xml version="1.0" encoding="UTF-8" standalone="no"?><svg xmlns="http://www.w3.org/2000/svg" xmlns:xlink="http://www.w3.org/1999/xlink" clip-rule="evenodd" stroke-miterlimit="4.00" viewBox="0 0 1024 768"><desc>SVG generated by Keynote</desc><defs></defs><g transform="matrix(1.00, 0.00, -0.00, -1.00, 0.0, 768.0)"><path d="M 0.0 768.0 L 1024.0 768.0 L 1024.0 0.0 L 0.0 0.0 Z M 0.0 768.0 " fill="#FEFFFF"></path><path d="M 0.0 0.0 L 405.8 0.0 L 405.8 112.2 L 0.0 112.2 Z M 0.0 0.0 " fill="none" stroke="#000000" stroke-width="1.00" transform="matrix(1.00, 0.00, 0.00, -1.00, 61.8, 320.5)"></path><path d="M 0.0 0.0 L 611.1 0.0 " fill="none" stroke="#000000" stroke-width="1.00" transform="matrix(0.00, 1.00, 1.00, 0.00, 531.9, -4.3)"></path><path d="M 0.0 0.0 L 127.1 0.0 " fill="none" stroke="#000000" stroke-width="1.00" transform="matrix(1.00, 0.00, 0.00, -1.00, 468.3, 264.4)"></path><path d="M 0.0 0.0 L 110.6 0.0 " fill="none" stroke="#000000" stroke-width="1.00" transform="matrix(1.00, 0.00, 0.00, -1.00, 474.0, 677.4)"></path><path d="M 536.9 270.3 C 540.0 267.3 540.0 262.2 536.9 259.1 C 533.8 256.0 528.8 256.0 525.7 259.1 C 522.6 262.2 522.6 267.3 525.7 270.3 C 528.8 273.4 533.8 273.4 536.9 270.3 Z M 536.9 270.3 " fill="#000000"></path><path d="M 0.0 0.0 L 33.4 0.0 " fill="none" stroke="#000000" stroke-width="1.00" transform="matrix(1.00, 0.00, 0.00, -1.00, 514.6, 607.1)"></path><path d="M 0.0 0.0 L 67.1 0.0 " fill="none" stroke="#000000" stroke-width="1.00" transform="matrix(0.00, 1.00, 1.00, 0.00, 804.4, -9.0)"></path><text xml:space="preserve" font-family="Gotham-Medium" font-size="24.0" fill="#000000" transform="matrix(1.00, 0.00, -0.00, -1.00, 415.0, 696.0)">U</text><text xml:space="preserve" font-family="Gotham-Medium" font-size="24.0" fill="#000000" transform="matrix(1.00, 0.00, -0.00, -1.00, 433.2, 696.0)">N</text><text xml:space="preserve" font-family="Gotham-Medium" font-size="24.0" fill="#000000" transform="matrix(1.00, 0.00, -0.00, -1.00, 452.1, 696.0)">M</text><text xml:space="preserve" font-family="Gotham-Medium" font-size="24.0" fill="#000000" transform="matrix(1.00, 0.00, -0.00, -1.00, 473.0, 696.0)">A</text><text xml:space="preserve" font-family="Gotham-Medium" font-size="24.0" fill="#000000" transform="matrix(1.00, 0.00, -0.00, -1.00, 491.9, 696.0)">K</text><text xml:space="preserve" font-family="Gotham-Medium" font-size="24.0" fill="#000000" transform="matrix(1.00, 0.00, -0.00, -1.00, 509.3, 696.0)">I</text><text xml:space="preserve" font-family="Gotham-Medium" font-size="24.0" fill="#000000" transform="matrix(1.00, 0.00, -0.00, -1.00, 516.9, 696.0)">N</text><text xml:space="preserve" font-family="Gotham-Medium" font-size="24.0" fill="#000000" transform="matrix(1.00, 0.00, -0.00, -1.00, 535.9, 696.0)">G</text><text xml:space="preserve" font-family="Gotham-Medium" font-size="24.0" fill="#000000" transform="matrix(1.00, 0.00, -0.00, -1.00, 554.7, 696.0)"> </text><text xml:space="preserve" font-family="Gotham-Medium" font-size="24.0" fill="#000000" transform="matrix(1.00, 0.00, -0.00, -1.00, 561.9, 696.0)">S</text><text xml:space="preserve" font-family="Gotham-Medium" font-size="24.0" fill="#000000" transform="matrix(1.00, 0.00, -0.00, -1.00, 577.3, 696.0)">E</text><text xml:space="preserve" font-family="Gotham-Medium" font-size="24.0" fill="#000000" transform="matrix(1.00, 0.00, -0.00, -1.00, 593.3, 696.0)">N</text><text xml:space="preserve" font-family="Gotham-Medium" font-size="24.0" fill="#000000" transform="matrix(1.00, 0.00, -0.00, -1.00, 612.3, 696.0)">S</text><text xml:space="preserve" font-family="Gotham-Medium" font-size="24.0" fill="#000000" transform="matrix(1.00, 0.00, -0.00, -1.00, 627.7, 696.0)">E</text><g><clipPath id="clip-11"><path d="M 596.0 468.0 L 962.0 468.0 L 962.0 59.0 L 596.0 59.0 Z M 596.1 468.3 "></path></clipPath><g clip-path="url(#clip-11)"><image xlink:href="B42143B1C5A56D361EC3678470E3312A.jpeg" width="616.00" height="410.00" transform="matrix(1.00, 0.00, -0.00, -1.00, 472.0, 468.0)"></image></g></g><path d="M 0.0 0.0 L 0.0 409.7 L 366.4 409.7 L 366.4 0.0 L 0.0 0.0 Z M 0.0 0.0 " fill="none" stroke="#000000" stroke-width="1.00" transform="matrix(1.00, 0.00, 0.00, -1.00, 596.1, 468.3)"></path><text xml:space="preserve" font-family="Gotham-Medium" font-size="24.0" fill="#000000" transform="matrix(1.00, 0.00, -0.00, -1.00, 132.0, 269.0)">W</text><text xml:space="preserve" font-family="Gotham-Medium" font-size="24.0" fill="#000000" transform="matrix(1.00, 0.00, -0.00, -1.00, 157.2, 269.0)">A</text><text xml:space="preserve" font-family="Gotham-Medium" font-size="24.0" fill="#000000" transform="matrix(1.00, 0.00, -0.00, -1.00, 174.3, 269.0)">T</text><text xml:space="preserve" font-family="Gotham-Medium" font-size="24.0" fill="#000000" transform="matrix(1.00, 0.00, -0.00, -1.00, 189.8, 269.0)">E</text><text xml:space="preserve" font-family="Gotham-Medium" font-size="24.0" fill="#000000" transform="matrix(1.00, 0.00, -0.00, -1.00, 205.9, 269.0)">R</text><text xml:space="preserve" font-family="Gotham-Medium" font-size="24.0" fill="#000000" transform="matrix(1.00, 0.00, -0.00, -1.00, 222.8, 269.0)">W</text><text xml:space="preserve" font-family="Gotham-Medium" font-size="24.0" fill="#000000" transform="matrix(1.00, 0.00, -0.00, -1.00, 248.0, 269.0)">A</text><text xml:space="preserve" font-family="Gotham-Medium" font-size="24.0" fill="#000000" transform="matrix(1.00, 0.00, -0.00, -1.00, 264.9, 269.0)">Y</text><text xml:space="preserve" font-family="Gotham-Medium" font-size="24.0" fill="#000000" transform="matrix(1.00, 0.00, -0.00, -1.00, 282.0, 269.0)">S</text><text xml:space="preserve" font-family="Gotham-Medium" font-size="24.0" fill="#000000" transform="matrix(1.00, 0.00, -0.00, -1.00, 297.4, 269.0)"> </text><text xml:space="preserve" font-family="Gotham-Medium" font-size="24.0" fill="#000000" transform="matrix(1.00, 0.00, -0.00, -1.00, 304.6, 269.0)">O</text><text xml:space="preserve" font-family="Gotham-Medium" font-size="24.0" fill="#000000" transform="matrix(1.00, 0.00, -0.00, -1.00, 325.0, 269.0)">F</text><text xml:space="preserve" font-family="Gotham-Medium" font-size="24.0" fill="#000000" transform="matrix(1.00, 0.00, -0.00, -1.00, 340.7, 269.0)"> </text><text xml:space="preserve" font-family="Gotham-Medium" font-size="24.0" fill="#000000" transform="matrix(1.00, 0.00, -0.00, -1.00, 347.9, 269.0)">T</text><text xml:space="preserve" font-family="Gotham-Medium" font-size="24.0" fill="#000000" transform="matrix(1.00, 0.00, -0.00, -1.00, 363.5, 269.0)">H</text><text xml:space="preserve" font-family="Gotham-Medium" font-size="24.0" fill="#000000" transform="matrix(1.00, 0.00, -0.00, -1.00, 381.7, 269.0)">E</text><text xml:space="preserve" font-family="Gotham-Medium" font-size="24.0" fill="#000000" transform="matrix(1.00, 0.00, -0.00, -1.00, 397.8, 269.0)"> </text><text xml:space="preserve" font-family="Gotham-Medium" font-size="24.0" fill="#000000" transform="matrix(1.00, 0.00, -0.00, -1.00, 189.0, 241.0)">I</text><text xml:space="preserve" font-family="Gotham-Medium" font-size="24.0" fill="#000000" transform="matrix(1.00, 0.00, -0.00, -1.00, 196.6, 241.0)">L</text><text xml:space="preserve" font-family="Gotham-Medium" font-size="24.0" fill="#000000" transform="matrix(1.00, 0.00, -0.00, -1.00, 211.5, 241.0)">L</text><text xml:space="preserve" font-family="Gotham-Medium" font-size="24.0" fill="#000000" transform="matrix(1.00, 0.00, -0.00, -1.00, 226.3, 241.0)">A</text><text xml:space="preserve" font-family="Gotham-Medium" font-size="24.0" fill="#000000" transform="matrix(1.00, 0.00, -0.00, -1.00, 243.3, 241.0)">W</text><text xml:space="preserve" font-family="Gotham-Medium" font-size="24.0" fill="#000000" transform="matrix(1.00, 0.00, -0.00, -1.00, 268.6, 241.0)">A</text><text xml:space="preserve" font-family="Gotham-Medium" font-size="24.0" fill="#000000" transform="matrix(1.00, 0.00, -0.00, -1.00, 287.5, 241.0)">R</text><text xml:space="preserve" font-family="Gotham-Medium" font-size="24.0" fill="#000000" transform="matrix(1.00, 0.00, -0.00, -1.00, 304.9, 241.0)">R</text><text xml:space="preserve" font-family="Gotham-Medium" font-size="24.0" fill="#000000" transform="matrix(1.00, 0.00, -0.00, -1.00, 322.0, 241.0)">A</text><text xml:space="preserve" font-family="Gotham-Book" font-size="11.2" fill="#000000" transform="matrix(1.00, 0.00, -0.00, -1.00, 708.3, 488.7)">T</text><text xml:space="preserve" font-family="Gotham-Book" font-size="11.2" fill="#000000" transform="matrix(1.00, 0.00, -0.00, -1.00, 715.2, 488.7)">O</text><text xml:space="preserve" font-family="Gotham-Book" font-size="14.0" fill="#000000" transform="matrix(1.00, 0.00, -0.00, -1.00, 724.7, 488.7)"> </text><text xml:space="preserve" font-family="Gotham-Book" font-size="11.2" fill="#000000" transform="matrix(1.00, 0.00, -0.00, -1.00, 728.9, 488.7)">W</text><text xml:space="preserve" font-family="Gotham-Book" font-size="11.2" fill="#000000" transform="matrix(1.00, 0.00, -0.00, -1.00, 740.6, 488.7)">A</text><text xml:space="preserve" font-family="Gotham-Book" font-size="11.2" fill="#000000" transform="matrix(1.00, 0.00, -0.00, -1.00, 749.4, 488.7)">L</text><text xml:space="preserve" font-family="Gotham-Book" font-size="11.2" fill="#000000" transform="matrix(1.00, 0.00, -0.00, -1.00, 756.3, 488.7)">K</text><text xml:space="preserve" font-family="Gotham-Book" font-size="14.0" fill="#000000" transform="matrix(1.00, 0.00, -0.00, -1.00, 764.4, 488.7)"> </text><text xml:space="preserve" font-family="Gotham-Book" font-size="11.2" fill="#000000" transform="matrix(1.00, 0.00, -0.00, -1.00, 768.6, 488.7)">A</text><text xml:space="preserve" font-family="Gotham-Book" font-size="11.2" fill="#000000" transform="matrix(1.00, 0.00, -0.00, -1.00, 777.3, 488.7)">S</text><text xml:space="preserve" font-family="Gotham-Book" font-size="14.0" fill="#000000" transform="matrix(1.00, 0.00, -0.00, -1.00, 784.5, 488.7)"> </text><text xml:space="preserve" font-family="Gotham-Book" font-size="11.2" fill="#000000" transform="matrix(1.00, 0.00, -0.00, -1.00, 788.7, 488.7)">F</text><text xml:space="preserve" font-family="Gotham-Book" font-size="11.2" fill="#000000" transform="matrix(1.00, 0.00, -0.00, -1.00, 795.3, 488.7)">A</text><text xml:space="preserve" font-family="Gotham-Book" font-size="11.2" fill="#000000" transform="matrix(1.00, 0.00, -0.00, -1.00, 804.1, 488.7)">R</text><text xml:space="preserve" font-family="Gotham-Book" font-size="14.0" fill="#000000" transform="matrix(1.00, 0.00, -0.00, -1.00, 812.2, 488.7)"> </text><text xml:space="preserve" font-family="Gotham-Book" font-size="11.2" fill="#000000" transform="matrix(1.00, 0.00, -0.00, -1.00, 816.4, 488.7)">A</text><text xml:space="preserve" font-family="Gotham-Book" font-size="11.2" fill="#000000" transform="matrix(1.00, 0.00, -0.00, -1.00, 825.1, 488.7)">S</text><text xml:space="preserve" font-family="Gotham-Book" font-size="14.0" fill="#000000" transform="matrix(1.00, 0.00, -0.00, -1.00, 832.3, 488.7)"> </text><text xml:space="preserve" font-family="Gotham-Book" font-size="11.2" fill="#000000" transform="matrix(1.00, 0.00, -0.00, -1.00, 836.5, 488.7)">P</text><text xml:space="preserve" font-family="Gotham-Book" font-size="11.2" fill="#000000" transform="matrix(1.00, 0.00, -0.00, -1.00, 844.0, 488.7)">O</text><text xml:space="preserve" font-family="Gotham-Book" font-size="11.2" fill="#000000" transform="matrix(1.00, 0.00, -0.00, -1.00, 853.5, 488.7)">S</text><text xml:space="preserve" font-family="Gotham-Book" font-size="11.2" fill="#000000" transform="matrix(1.00, 0.00, -0.00, -1.00, 860.5, 488.7)">S</text><text xml:space="preserve" font-family="Gotham-Book" font-size="11.2" fill="#000000" transform="matrix(1.00, 0.00, -0.00, -1.00, 867.7, 488.7)">I</text><text xml:space="preserve" font-family="Gotham-Book" font-size="11.2" fill="#000000" transform="matrix(1.00, 0.00, -0.00, -1.00, 870.9, 488.7)">B</text><text xml:space="preserve" font-family="Gotham-Book" font-size="11.2" fill="#000000" transform="matrix(1.00, 0.00, -0.00, -1.00, 879.0, 488.7)">L</text><text xml:space="preserve" font-family="Gotham-Book" font-size="11.2" fill="#000000" transform="matrix(1.00, 0.00, -0.00, -1.00, 886.0, 488.7)">E</text><text xml:space="preserve" font-family="Gotham-Book" font-size="14.0" fill="#000000" transform="matrix(1.00, 0.00, -0.00, -1.00, 893.5, 488.7)"> </text><text xml:space="preserve" font-family="Gotham-Book" font-size="11.2" fill="#000000" transform="matrix(1.00, 0.00, -0.00, -1.00, 897.7, 488.7)">U</text><text xml:space="preserve" font-family="Gotham-Book" font-size="11.2" fill="#000000" transform="matrix(1.00, 0.00, -0.00, -1.00, 906.2, 488.7)">P</text><text xml:space="preserve" font-family="Gotham-Book" font-size="11.2" fill="#000000" transform="matrix(1.00, 0.00, -0.00, -1.00, 913.6, 488.7)">S</text><text xml:space="preserve" font-family="Gotham-Book" font-size="11.2" fill="#000000" transform="matrix(1.00, 0.00, -0.00, -1.00, 920.4, 488.7)">T</text><text xml:space="preserve" font-family="Gotham-Book" font-size="11.2" fill="#000000" transform="matrix(1.00, 0.00, -0.00, -1.00, 927.7, 488.7)">R</text><text xml:space="preserve" font-family="Gotham-Book" font-size="11.2" fill="#000000" transform="matrix(1.00, 0.00, -0.00, -1.00, 935.8, 488.7)">E</text><text xml:space="preserve" font-family="Gotham-Book" font-size="11.2" fill="#000000" transform="matrix(1.00, 0.00, -0.00, -1.00, 943.3, 488.7)">A</text><text xml:space="preserve" font-family="Gotham-Book" font-size="11.2" fill="#000000" transform="matrix(1.00, 0.00, -0.00, -1.00, 952.1, 488.7)">M</text><text xml:space="preserve" font-family="Gotham-Book" font-size="18.0" fill="#000000" transform="matrix(1.00, 0.00, -0.00, -1.00, 10.0, 737.0)">2</text><text xml:space="preserve" font-family="Gotham-Book" font-size="18.0" fill="#000000" transform="matrix(1.00, 0.00, -0.00, -1.00, 20.8, 737.0)">.</text><text xml:space="preserve" font-family="Gotham-Book" font-size="18.0" fill="#000000" transform="matrix(1.00, 0.00, -0.00, -1.00, 25.2, 737.0)"> </text><text xml:space="preserve" font-family="Gotham-Book" font-size="18.0" fill="#000000" transform="matrix(1.00, 0.00, -0.00, -1.00, 30.6, 737.0)">h</text><text xml:space="preserve" font-family="Gotham-Book" font-size="18.0" fill="#000000" transform="matrix(1.00, 0.00, -0.00, -1.00, 41.7, 737.0)">u</text><text xml:space="preserve" font-family="Gotham-Book" font-size="18.0" fill="#000000" transform="matrix(1.00, 0.00, -0.00, -1.00, 52.8, 737.0)">m</text><text xml:space="preserve" font-family="Gotham-Book" font-size="18.0" fill="#000000" transform="matrix(1.00, 0.00, -0.00, -1.00, 69.9, 737.0)">a</text><text xml:space="preserve" font-family="Gotham-Book" font-size="18.0" fill="#000000" transform="matrix(1.00, 0.00, -0.00, -1.00, 80.3, 737.0)">n</text><text xml:space="preserve" font-family="Gotham-Book" font-size="18.0" fill="#000000" transform="matrix(1.00, 0.00, -0.00, -1.00, 91.4, 737.0)"> </text><text xml:space="preserve" font-family="Gotham-Book" font-size="18.0" fill="#000000" transform="matrix(1.00, 0.00, -0.00, -1.00, 96.8, 737.0)">a</text><text xml:space="preserve" font-family="Gotham-Book" font-size="18.0" fill="#000000" transform="matrix(1.00, 0.00, -0.00, -1.00, 107.2, 737.0)">s</text><text xml:space="preserve" font-family="Gotham-Book" font-size="18.0" fill="#000000" transform="matrix(1.00, 0.00, -0.00, -1.00, 116.2, 737.0)"> </text><text xml:space="preserve" font-family="Gotham-Book" font-size="18.0" fill="#000000" transform="matrix(1.00, 0.00, -0.00, -1.00, 121.6, 737.0)">s</text><text xml:space="preserve" font-family="Gotham-Book" font-size="18.0" fill="#000000" transform="matrix(1.00, 0.00, -0.00, -1.00, 130.4, 737.0)">e</text><text xml:space="preserve" font-family="Gotham-Book" font-size="18.0" fill="#000000" transform="matrix(1.00, 0.00, -0.00, -1.00, 141.1, 737.0)">n</text><text xml:space="preserve" font-family="Gotham-Book" font-size="18.0" fill="#000000" transform="matrix(1.00, 0.00, -0.00, -1.00, 152.2, 737.0)">s</text><text xml:space="preserve" font-family="Gotham-Book" font-size="18.0" fill="#000000" transform="matrix(1.00, 0.00, -0.00, -1.00, 161.0, 737.0)">o</text><text xml:space="preserve" font-family="Gotham-Book" font-size="18.0" fill="#000000" transform="matrix(1.00, 0.00, -0.00, -1.00, 172.7, 737.0)">r</text></g></svg>