<?xml version="1.0" encoding="UTF-8" standalone="no"?><svg xmlns="http://www.w3.org/2000/svg" xmlns:xlink="http://www.w3.org/1999/xlink" clip-rule="evenodd" stroke-miterlimit="4.00" viewBox="0 0 1024 768"><desc>SVG generated by Keynote</desc><defs></defs><g transform="matrix(1.00, 0.00, -0.00, -1.00, 0.0, 768.0)"><path d="M 0.0 768.0 L 1024.0 768.0 L 1024.0 0.0 L 0.0 0.0 Z M 0.0 768.0 " fill="#FEFFFF"></path><path d="M 0.0 0.0 L 611.1 0.0 " fill="none" stroke="#000000" stroke-width="1.00" transform="matrix(0.00, 1.00, 1.00, 0.00, 531.9, -4.3)"></path><path d="M 0.0 0.0 L 127.1 0.0 " fill="none" stroke="#000000" stroke-width="1.00" transform="matrix(1.00, 0.00, 0.00, -1.00, 468.3, 264.4)"></path><path d="M 0.0 0.0 L 110.6 0.0 " fill="none" stroke="#000000" stroke-width="1.00" transform="matrix(1.00, 0.00, 0.00, -1.00, 474.0, 677.4)"></path><path d="M 0.0 0.0 L 611.1 0.0 " fill="none" stroke="#000000" stroke-width="1.00" transform="matrix(0.00, 1.00, 1.00, 0.00, 531.9, -4.3)"></path><path d="M 0.0 0.0 L 127.1 0.0 " fill="none" stroke="#000000" stroke-width="1.00" transform="matrix(1.00, 0.00, 0.00, -1.00, 468.3, 264.4)"></path><path d="M 0.0 0.0 L 110.6 0.0 " fill="none" stroke="#000000" stroke-width="1.00" transform="matrix(1.00, 0.00, 0.00, -1.00, 474.0, 677.4)"></path><path d="M 536.9 270.3 C 540.0 267.3 540.0 262.2 536.9 259.1 C 533.8 256.0 528.8 256.0 525.7 259.1 C 522.6 262.2 522.6 267.3 525.7 270.3 C 528.8 273.4 533.8 273.4 536.9 270.3 Z M 536.9 270.3 " fill="#000000"></path><path d="M 13.5 2.3 C 16.6 5.4 16.6 10.4 13.5 13.5 C 10.4 16.6 5.4 16.6 2.3 13.5 C -0.8 10.4 -0.8 5.4 2.3 2.3 C 5.4 -0.8 10.4 -0.8 13.5 2.3 Z M 13.5 2.3 " fill="none" stroke="#000000" stroke-width="1.00" transform="matrix(1.00, 0.00, 0.00, -1.00, 523.4, 272.7)"></path><path d="M 0.0 0.0 L 33.4 0.0 " fill="none" stroke="#000000" stroke-width="1.00" transform="matrix(1.00, 0.00, 0.00, -1.00, 514.6, 607.1)"></path><g><clipPath id="clip-35"><path d="M 596.0 468.0 L 962.0 468.0 L 962.0 59.0 L 596.0 59.0 Z M 596.1 468.3 "></path></clipPath><g clip-path="url(#clip-35)"><image xlink:href="../../EF70DC15-8843-443B-A5A6-B2EE611D8F90/assets/9B2F1EFE6ADA11333A2810BBC76A9EEA.jpeg" width="539.00" height="410.00" transform="matrix(1.00, 0.00, -0.00, -1.00, 510.0, 468.0)"></image></g></g><path d="M 0.0 0.0 L 0.0 409.7 L 366.4 409.7 L 366.4 0.0 L 0.0 0.0 Z M 0.0 0.0 " fill="none" stroke="#000000" stroke-width="1.00" transform="matrix(1.00, 0.00, 0.00, -1.00, 596.1, 468.3)"></path><g><clipPath id="clip-36"><path d="M 100.0 467.0 L 467.0 467.0 L 467.0 58.0 L 100.0 58.0 Z M 100.1 467.3 "></path></clipPath><g clip-path="url(#clip-36)"><image xlink:href="../../EF70DC15-8843-443B-A5A6-B2EE611D8F90/assets/95A72FD0F3F732B21CF6AF119ACB2879.jpeg" width="366.00" height="561.00" transform="matrix(1.00, 0.00, -0.00, -1.00, 100.0, 543.0)"></image></g></g><path d="M 0.0 0.0 L 0.0 409.7 L 366.4 409.7 L 366.4 0.0 L 0.0 0.0 Z M 0.0 0.0 " fill="none" stroke="#000000" stroke-width="1.00" transform="matrix(1.00, 0.00, 0.00, -1.00, 100.1, 467.3)"></path><text xml:space="preserve" font-family="Gotham-Medium" font-size="24.0" fill="#000000" transform="matrix(1.00, 0.00, -0.00, -1.00, 411.0, 696.0)">G</text><text xml:space="preserve" font-family="Gotham-Medium" font-size="24.0" fill="#000000" transform="matrix(1.00, 0.00, -0.00, -1.00, 429.8, 696.0)">A</text><text xml:space="preserve" font-family="Gotham-Medium" font-size="24.0" fill="#000000" transform="matrix(1.00, 0.00, -0.00, -1.00, 446.9, 696.0)">T</text><text xml:space="preserve" font-family="Gotham-Medium" font-size="24.0" fill="#000000" transform="matrix(1.00, 0.00, -0.00, -1.00, 462.4, 696.0)">H</text><text xml:space="preserve" font-family="Gotham-Medium" font-size="24.0" fill="#000000" transform="matrix(1.00, 0.00, -0.00, -1.00, 480.6, 696.0)">E</text><text xml:space="preserve" font-family="Gotham-Medium" font-size="24.0" fill="#000000" transform="matrix(1.00, 0.00, -0.00, -1.00, 496.7, 696.0)">R</text><text xml:space="preserve" font-family="Gotham-Medium" font-size="24.0" fill="#000000" transform="matrix(1.00, 0.00, -0.00, -1.00, 514.1, 696.0)">I</text><text xml:space="preserve" font-family="Gotham-Medium" font-size="24.0" fill="#000000" transform="matrix(1.00, 0.00, -0.00, -1.00, 521.7, 696.0)">N</text><text xml:space="preserve" font-family="Gotham-Medium" font-size="24.0" fill="#000000" transform="matrix(1.00, 0.00, -0.00, -1.00, 540.6, 696.0)">G</text><text xml:space="preserve" font-family="Gotham-Medium" font-size="24.0" fill="#000000" transform="matrix(1.00, 0.00, -0.00, -1.00, 559.5, 696.0)"> </text><text xml:space="preserve" font-family="Gotham-Medium" font-size="24.0" fill="#000000" transform="matrix(1.00, 0.00, -0.00, -1.00, 566.7, 696.0)">S</text><text xml:space="preserve" font-family="Gotham-Medium" font-size="24.0" fill="#000000" transform="matrix(1.00, 0.00, -0.00, -1.00, 582.0, 696.0)">E</text><text xml:space="preserve" font-family="Gotham-Medium" font-size="24.0" fill="#000000" transform="matrix(1.00, 0.00, -0.00, -1.00, 598.1, 696.0)">N</text><text xml:space="preserve" font-family="Gotham-Medium" font-size="24.0" fill="#000000" transform="matrix(1.00, 0.00, -0.00, -1.00, 617.1, 696.0)">S</text><text xml:space="preserve" font-family="Gotham-Medium" font-size="24.0" fill="#000000" transform="matrix(1.00, 0.00, -0.00, -1.00, 632.4, 696.0)">E</text><text xml:space="preserve" font-family="Gotham-Book" font-size="14.0" fill="#000000" transform="matrix(1.00, 0.00, -0.00, -1.00, 103.0, 503.0)">T</text><text xml:space="preserve" font-family="Gotham-Book" font-size="11.2" fill="#000000" transform="matrix(1.00, 0.00, -0.00, -1.00, 112.1, 503.0)">R</text><text xml:space="preserve" font-family="Gotham-Book" font-size="11.2" fill="#000000" transform="matrix(1.00, 0.00, -0.00, -1.00, 120.2, 503.0)">E</text><text xml:space="preserve" font-family="Gotham-Book" font-size="11.2" fill="#000000" transform="matrix(1.00, 0.00, -0.00, -1.00, 127.7, 503.0)">E</text><text xml:space="preserve" font-family="Gotham-Book" font-size="14.0" fill="#000000" transform="matrix(1.00, 0.00, -0.00, -1.00, 135.2, 503.0)"> </text><text xml:space="preserve" font-family="Gotham-Book" font-size="14.0" fill="#000000" transform="matrix(1.00, 0.00, -0.00, -1.00, 139.4, 503.0)">D</text><text xml:space="preserve" font-family="Gotham-Book" font-size="11.2" fill="#000000" transform="matrix(1.00, 0.00, -0.00, -1.00, 150.3, 503.0)">R</text><text xml:space="preserve" font-family="Gotham-Book" font-size="11.2" fill="#000000" transform="matrix(1.00, 0.00, -0.00, -1.00, 158.3, 503.0)">A</text><text xml:space="preserve" font-family="Gotham-Book" font-size="11.2" fill="#000000" transform="matrix(1.00, 0.00, -0.00, -1.00, 166.3, 503.0)">W</text><text xml:space="preserve" font-family="Gotham-Book" font-size="11.2" fill="#000000" transform="matrix(1.00, 0.00, -0.00, -1.00, 178.7, 503.0)">I</text><text xml:space="preserve" font-family="Gotham-Book" font-size="11.2" fill="#000000" transform="matrix(1.00, 0.00, -0.00, -1.00, 181.9, 503.0)">N</text><text xml:space="preserve" font-family="Gotham-Book" font-size="11.2" fill="#000000" transform="matrix(1.00, 0.00, -0.00, -1.00, 190.8, 503.0)">G</text><text xml:space="preserve" font-family="Gotham-Book" font-size="14.0" fill="#000000" transform="matrix(1.00, 0.00, -0.00, -1.00, 199.5, 503.0)"> </text><text xml:space="preserve" font-family="Gotham-Book" font-size="14.0" fill="#000000" transform="matrix(1.00, 0.00, -0.00, -1.00, 203.7, 503.0)">-</text><text xml:space="preserve" font-family="Gotham-Book" font-size="14.0" fill="#000000" transform="matrix(1.00, 0.00, -0.00, -1.00, 209.5, 503.0)"> </text><text xml:space="preserve" font-family="Gotham-Book" font-size="14.0" fill="#000000" transform="matrix(1.00, 0.00, -0.00, -1.00, 213.7, 503.0)">W</text><text xml:space="preserve" font-family="Gotham-Book" font-size="11.2" fill="#000000" transform="matrix(1.00, 0.00, -0.00, -1.00, 229.1, 503.0)">E</text><text xml:space="preserve" font-family="Gotham-Book" font-size="11.2" fill="#000000" transform="matrix(1.00, 0.00, -0.00, -1.00, 236.7, 503.0)">E</text><text xml:space="preserve" font-family="Gotham-Book" font-size="11.2" fill="#000000" transform="matrix(1.00, 0.00, -0.00, -1.00, 244.2, 503.0)">P</text><text xml:space="preserve" font-family="Gotham-Book" font-size="11.2" fill="#000000" transform="matrix(1.00, 0.00, -0.00, -1.00, 251.6, 503.0)">I</text><text xml:space="preserve" font-family="Gotham-Book" font-size="11.2" fill="#000000" transform="matrix(1.00, 0.00, -0.00, -1.00, 254.9, 503.0)">N</text><text xml:space="preserve" font-family="Gotham-Book" font-size="11.2" fill="#000000" transform="matrix(1.00, 0.00, -0.00, -1.00, 263.7, 503.0)">G</text><text xml:space="preserve" font-family="Gotham-Book" font-size="14.0" fill="#000000" transform="matrix(1.00, 0.00, -0.00, -1.00, 272.5, 503.0)"> </text><text xml:space="preserve" font-family="Gotham-Book" font-size="14.0" fill="#000000" transform="matrix(1.00, 0.00, -0.00, -1.00, 276.7, 503.0)">W</text><text xml:space="preserve" font-family="Gotham-Book" font-size="11.2" fill="#000000" transform="matrix(1.00, 0.00, -0.00, -1.00, 292.2, 503.0)">I</text><text xml:space="preserve" font-family="Gotham-Book" font-size="11.2" fill="#000000" transform="matrix(1.00, 0.00, -0.00, -1.00, 295.5, 503.0)">L</text><text xml:space="preserve" font-family="Gotham-Book" font-size="11.2" fill="#000000" transform="matrix(1.00, 0.00, -0.00, -1.00, 302.4, 503.0)">L</text><text xml:space="preserve" font-family="Gotham-Book" font-size="11.2" fill="#000000" transform="matrix(1.00, 0.00, -0.00, -1.00, 308.4, 503.0)">O</text><text xml:space="preserve" font-family="Gotham-Book" font-size="11.2" fill="#000000" transform="matrix(1.00, 0.00, -0.00, -1.00, 317.4, 503.0)">W</text><text xml:space="preserve" font-family="Gotham-Book" font-size="14.0" fill="#000000" transform="matrix(1.00, 0.00, -0.00, -1.00, 329.8, 503.0)"> </text><text xml:space="preserve" font-family="Gotham-Book" font-size="11.2" fill="#000000" transform="matrix(1.00, 0.00, -0.00, -1.00, 334.0, 503.0)">O</text><text xml:space="preserve" font-family="Gotham-Book" font-size="11.2" fill="#000000" transform="matrix(1.00, 0.00, -0.00, -1.00, 343.5, 503.0)">N</text><text xml:space="preserve" font-family="Gotham-Book" font-size="14.0" fill="#000000" transform="matrix(1.00, 0.00, -0.00, -1.00, 352.4, 503.0)"> </text><text xml:space="preserve" font-family="Gotham-Book" font-size="11.2" fill="#000000" transform="matrix(1.00, 0.00, -0.00, -1.00, 356.6, 503.0)">C</text><text xml:space="preserve" font-family="Gotham-Book" font-size="11.2" fill="#000000" transform="matrix(1.00, 0.00, -0.00, -1.00, 364.9, 503.0)">I</text><text xml:space="preserve" font-family="Gotham-Book" font-size="11.2" fill="#000000" transform="matrix(1.00, 0.00, -0.00, -1.00, 368.1, 503.0)">R</text><text xml:space="preserve" font-family="Gotham-Book" font-size="11.2" fill="#000000" transform="matrix(1.00, 0.00, -0.00, -1.00, 376.2, 503.0)">C</text><text xml:space="preserve" font-family="Gotham-Book" font-size="11.2" fill="#000000" transform="matrix(1.00, 0.00, -0.00, -1.00, 384.3, 503.0)">U</text><text xml:space="preserve" font-family="Gotham-Book" font-size="11.2" fill="#000000" transform="matrix(1.00, 0.00, -0.00, -1.00, 392.8, 503.0)">L</text><text xml:space="preserve" font-family="Gotham-Book" font-size="11.2" fill="#000000" transform="matrix(1.00, 0.00, -0.00, -1.00, 399.7, 503.0)">A</text><text xml:space="preserve" font-family="Gotham-Book" font-size="11.2" fill="#000000" transform="matrix(1.00, 0.00, -0.00, -1.00, 408.5, 503.0)">R</text><text xml:space="preserve" font-family="Gotham-Book" font-size="14.0" fill="#000000" transform="matrix(1.00, 0.00, -0.00, -1.00, 416.6, 503.0)"> </text><text xml:space="preserve" font-family="Gotham-Book" font-size="11.2" fill="#000000" transform="matrix(1.00, 0.00, -0.00, -1.00, 420.8, 503.0)">P</text><text xml:space="preserve" font-family="Gotham-Book" font-size="11.2" fill="#000000" transform="matrix(1.00, 0.00, -0.00, -1.00, 427.8, 503.0)">A</text><text xml:space="preserve" font-family="Gotham-Book" font-size="11.2" fill="#000000" transform="matrix(1.00, 0.00, -0.00, -1.00, 436.6, 503.0)">N</text><text xml:space="preserve" font-family="Gotham-Book" font-size="11.2" fill="#000000" transform="matrix(1.00, 0.00, -0.00, -1.00, 445.5, 503.0)">E</text><text xml:space="preserve" font-family="Gotham-Book" font-size="11.2" fill="#000000" transform="matrix(1.00, 0.00, -0.00, -1.00, 453.0, 503.0)">L</text><text xml:space="preserve" font-family="Gotham-Book" font-size="14.0" fill="#000000" transform="matrix(1.00, 0.00, -0.00, -1.00, 459.9, 503.0)"> </text><text xml:space="preserve" font-family="Gotham-Book" font-size="14.0" fill="#000000" transform="matrix(1.00, 0.00, -0.00, -1.00, 103.0, 487.0)">[</text><text xml:space="preserve" font-family="Gotham-Book" font-size="14.0" fill="#000000" transform="matrix(1.00, 0.00, -0.00, -1.00, 109.1, 487.0)">1</text><text xml:space="preserve" font-family="Gotham-Book" font-size="14.0" fill="#000000" transform="matrix(1.00, 0.00, -0.00, -1.00, 114.2, 487.0)">0</text><text xml:space="preserve" font-family="Gotham-Book" font-size="14.0" fill="#000000" transform="matrix(1.00, 0.00, -0.00, -1.00, 124.2, 487.0)">0</text><text xml:space="preserve" font-family="Gotham-Book" font-size="14.0" fill="#000000" transform="matrix(1.00, 0.00, -0.00, -1.00, 134.2, 487.0)"> </text><text xml:space="preserve" font-family="Gotham-Book" font-size="11.2" fill="#000000" transform="matrix(1.00, 0.00, -0.00, -1.00, 138.4, 487.0)">P</text><text xml:space="preserve" font-family="Gotham-Book" font-size="11.2" fill="#000000" transform="matrix(1.00, 0.00, -0.00, -1.00, 145.9, 487.0)">E</text><text xml:space="preserve" font-family="Gotham-Book" font-size="11.2" fill="#000000" transform="matrix(1.00, 0.00, -0.00, -1.00, 153.4, 487.0)">N</text><text xml:space="preserve" font-family="Gotham-Book" font-size="14.0" fill="#000000" transform="matrix(1.00, 0.00, -0.00, -1.00, 162.2, 487.0)">]</text><text xml:space="preserve" font-family="Gotham-Book" font-size="14.0" fill="#000000" transform="matrix(1.00, 0.00, -0.00, -1.00, 168.4, 487.0)"> </text></g></svg>