<?xml version="1.0" encoding="UTF-8" standalone="no"?><svg xmlns="http://www.w3.org/2000/svg" xmlns:xlink="http://www.w3.org/1999/xlink" clip-rule="evenodd" stroke-miterlimit="4.00" viewBox="0 0 1024 768"><desc>SVG generated by Keynote</desc><defs></defs><g transform="matrix(1.00, 0.00, -0.00, -1.00, 0.0, 768.0)"><path d="M 0.0 768.0 L 1024.0 768.0 L 1024.0 0.0 L 0.0 0.0 Z M 0.0 768.0 " fill="#FEFFFF"></path><path d="M 0.0 0.0 L 405.8 0.0 L 405.8 112.2 L 0.0 112.2 Z M 0.0 0.0 " fill="none" stroke="#000000" stroke-width="1.00" transform="matrix(1.00, 0.00, 0.00, -1.00, 61.8, 320.5)"></path><path d="M 0.0 0.0 L 611.1 0.0 " fill="none" stroke="#000000" stroke-width="1.00" transform="matrix(0.00, 1.00, 1.00, 0.00, 531.9, -4.3)"></path><path d="M 0.0 0.0 L 127.1 0.0 " fill="none" stroke="#000000" stroke-width="1.00" transform="matrix(1.00, 0.00, 0.00, -1.00, 468.3, 264.4)"></path><path d="M 0.0 0.0 L 110.6 0.0 " fill="none" stroke="#000000" stroke-width="1.00" transform="matrix(1.00, 0.00, 0.00, -1.00, 474.0, 677.4)"></path><path d="M 536.9 270.3 C 540.0 267.3 540.0 262.2 536.9 259.1 C 533.8 256.0 528.8 256.0 525.7 259.1 C 522.6 262.2 522.6 267.3 525.7 270.3 C 528.8 273.4 533.8 273.4 536.9 270.3 Z M 536.9 270.3 " fill="#000000"></path><path d="M 0.0 0.0 L 33.4 0.0 " fill="none" stroke="#000000" stroke-width="1.00" transform="matrix(1.00, 0.00, 0.00, -1.00, 514.6, 607.1)"></path><path d="M 0.0 0.0 L 67.1 0.0 " fill="none" stroke="#000000" stroke-width="1.00" transform="matrix(0.00, 1.00, 1.00, 0.00, 804.4, -9.0)"></path><text xml:space="preserve" font-family="Gotham-Medium" font-size="24.0" fill="#000000" transform="matrix(1.00, 0.00, -0.00, -1.00, 381.0, 696.0)">S</text><text xml:space="preserve" font-family="Gotham-Medium" font-size="24.0" fill="#000000" transform="matrix(1.00, 0.00, -0.00, -1.00, 396.4, 696.0)">E</text><text xml:space="preserve" font-family="Gotham-Medium" font-size="24.0" fill="#000000" transform="matrix(1.00, 0.00, -0.00, -1.00, 412.4, 696.0)">N</text><text xml:space="preserve" font-family="Gotham-Medium" font-size="24.0" fill="#000000" transform="matrix(1.00, 0.00, -0.00, -1.00, 431.4, 696.0)">S</text><text xml:space="preserve" font-family="Gotham-Medium" font-size="24.0" fill="#000000" transform="matrix(1.00, 0.00, -0.00, -1.00, 446.8, 696.0)">I</text><text xml:space="preserve" font-family="Gotham-Medium" font-size="24.0" fill="#000000" transform="matrix(1.00, 0.00, -0.00, -1.00, 454.4, 696.0)">N</text><text xml:space="preserve" font-family="Gotham-Medium" font-size="24.0" fill="#000000" transform="matrix(1.00, 0.00, -0.00, -1.00, 473.3, 696.0)">G</text><text xml:space="preserve" font-family="Gotham-Medium" font-size="24.0" fill="#000000" transform="matrix(1.00, 0.00, -0.00, -1.00, 492.1, 696.0)"> </text><text xml:space="preserve" font-family="Gotham-Medium" font-size="24.0" fill="#000000" transform="matrix(1.00, 0.00, -0.00, -1.00, 499.3, 696.0)">-</text><text xml:space="preserve" font-family="Gotham-Medium" font-size="24.0" fill="#000000" transform="matrix(1.00, 0.00, -0.00, -1.00, 509.1, 696.0)"> </text><text xml:space="preserve" font-family="Gotham-Medium" font-size="24.0" fill="#000000" transform="matrix(1.00, 0.00, -0.00, -1.00, 516.3, 696.0)">V</text><text xml:space="preserve" font-family="Gotham-Medium" font-size="24.0" fill="#000000" transform="matrix(1.00, 0.00, -0.00, -1.00, 534.3, 696.0)">I</text><text xml:space="preserve" font-family="Gotham-Medium" font-size="24.0" fill="#000000" transform="matrix(1.00, 0.00, -0.00, -1.00, 541.9, 696.0)">S</text><text xml:space="preserve" font-family="Gotham-Medium" font-size="24.0" fill="#000000" transform="matrix(1.00, 0.00, -0.00, -1.00, 556.8, 696.0)">U</text><text xml:space="preserve" font-family="Gotham-Medium" font-size="24.0" fill="#000000" transform="matrix(1.00, 0.00, -0.00, -1.00, 574.5, 696.0)">A</text><text xml:space="preserve" font-family="Gotham-Medium" font-size="24.0" fill="#000000" transform="matrix(1.00, 0.00, -0.00, -1.00, 593.5, 696.0)">L</text><text xml:space="preserve" font-family="Gotham-Medium" font-size="24.0" fill="#000000" transform="matrix(1.00, 0.00, -0.00, -1.00, 608.3, 696.0)">I</text><text xml:space="preserve" font-family="Gotham-Medium" font-size="24.0" fill="#000000" transform="matrix(1.00, 0.00, -0.00, -1.00, 615.9, 696.0)">Z</text><text xml:space="preserve" font-family="Gotham-Medium" font-size="24.0" fill="#000000" transform="matrix(1.00, 0.00, -0.00, -1.00, 632.8, 696.0)">I</text><text xml:space="preserve" font-family="Gotham-Medium" font-size="24.0" fill="#000000" transform="matrix(1.00, 0.00, -0.00, -1.00, 640.4, 696.0)">N</text><text xml:space="preserve" font-family="Gotham-Medium" font-size="24.0" fill="#000000" transform="matrix(1.00, 0.00, -0.00, -1.00, 659.4, 696.0)">G</text><g><clipPath id="clip-3"><path d="M 596.0 468.0 L 962.0 468.0 L 962.0 59.0 L 596.0 59.0 Z M 596.1 468.3 "></path></clipPath><g clip-path="url(#clip-3)"><image xlink:href="F1A235631A0F28D5AC410EB3207E71FA.jpeg" width="415.00" height="410.00" transform="matrix(1.00, 0.00, -0.00, -1.00, 572.0, 468.0)"></image></g></g><path d="M 0.0 0.0 L 0.0 409.7 L 366.4 409.7 L 366.4 0.0 L 0.0 0.0 Z M 0.0 0.0 " fill="none" stroke="#000000" stroke-width="1.00" transform="matrix(1.00, 0.00, 0.00, -1.00, 596.1, 468.3)"></path><text xml:space="preserve" font-family="Gotham-Book" font-size="18.0" fill="#000000" transform="matrix(1.00, 0.00, -0.00, -1.00, 193.0, 257.0)">S</text><text xml:space="preserve" font-family="Gotham-Book" font-size="18.0" fill="#000000" transform="matrix(1.00, 0.00, -0.00, -1.00, 204.2, 257.0)">C</text><text xml:space="preserve" font-family="Gotham-Book" font-size="18.0" fill="#000000" transform="matrix(1.00, 0.00, -0.00, -1.00, 217.5, 257.0)">H</text><text xml:space="preserve" font-family="Gotham-Book" font-size="18.0" fill="#000000" transform="matrix(1.00, 0.00, -0.00, -1.00, 231.2, 257.0)">I</text><text xml:space="preserve" font-family="Gotham-Book" font-size="18.0" fill="#000000" transform="matrix(1.00, 0.00, -0.00, -1.00, 236.5, 257.0)">S</text><text xml:space="preserve" font-family="Gotham-Book" font-size="18.0" fill="#000000" transform="matrix(1.00, 0.00, -0.00, -1.00, 247.3, 257.0)">T</text><text xml:space="preserve" font-family="Gotham-Book" font-size="18.0" fill="#000000" transform="matrix(1.00, 0.00, -0.00, -1.00, 258.4, 257.0)">O</text><text xml:space="preserve" font-family="Gotham-Book" font-size="18.0" fill="#000000" transform="matrix(1.00, 0.00, -0.00, -1.00, 273.5, 257.0)">S</text><text xml:space="preserve" font-family="Gotham-Book" font-size="18.0" fill="#000000" transform="matrix(1.00, 0.00, -0.00, -1.00, 284.4, 257.0)">T</text><text xml:space="preserve" font-family="Gotham-Book" font-size="18.0" fill="#000000" transform="matrix(1.00, 0.00, -0.00, -1.00, 296.0, 257.0)">E</text><text xml:space="preserve" font-family="Gotham-Book" font-size="18.0" fill="#000000" transform="matrix(1.00, 0.00, -0.00, -1.00, 308.0, 257.0)">G</text><text xml:space="preserve" font-family="Gotham-Book" font-size="18.0" fill="#000000" transform="matrix(1.00, 0.00, -0.00, -1.00, 322.1, 257.0)">A</text></g></svg>